<svg xmlns="http://www.w3.org/2000/svg" width="200" height="200" viewBox="0 0 200 200"><path fill="#d0e5b2" d="M65 37a14,14 0 1,1 28,0a14,14 0 1,1 -28,0M107 37a14,14 0 1,1 28,0a14,14 0 1,1 -28,0M107 163a14,14 0 1,1 28,0a14,14 0 1,1 -28,0M65 163a14,14 0 1,1 28,0a14,14 0 1,1 -28,0M23 79a14,14 0 1,1 28,0a14,14 0 1,1 -28,0M149 79a14,14 0 1,1 28,0a14,14 0 1,1 -28,0M149 121a14,14 0 1,1 28,0a14,14 0 1,1 -28,0M23 121a14,14 0 1,1 28,0a14,14 0 1,1 -28,0"/><path fill="#a1cc66" d="M16 37L37 16L58 37L37 58ZM163 16L184 37L163 58L142 37ZM184 163L163 184L142 163L163 142ZM37 184L16 163L37 142L58 163ZM100 58L100 91L79 58ZM142 100L109 100L142 79ZM100 142L100 109L121 142ZM58 100L91 100L58 121Z"/></svg>