<svg xmlns="http://www.w3.org/2000/svg" width="200" height="200" viewBox="0 0 200 200"><path fill="#4c4c4c" d="M100 16L100 58L79 58ZM142 58L100 58L100 37ZM100 184L100 142L121 142ZM58 142L100 142L100 163ZM58 58L58 100L37 100ZM184 100L142 100L142 79ZM142 142L142 100L163 100ZM16 100L58 100L58 121Z"/><path fill="#d4e5b2" d="M16 37L37 16L58 37L37 58ZM163 16L184 37L163 58L142 37ZM184 163L163 184L142 163L163 142ZM37 184L16 163L37 142L58 163Z"/><path fill="#aacc66" d="M100 58L100 91L79 58ZM142 100L109 100L142 79ZM100 142L100 109L121 142ZM58 100L91 100L58 121Z"/></svg>